<?xml version="1.0" encoding="UTF-8" standalone="no"?>
<!DOCTYPE svg PUBLIC "-//W3C//DTD SVG 1.1//EN" "http://www.w3.org/Graphics/SVG/1.1/DTD/svg11.dtd">
<svg width="100%" height="100%" viewBox="0 0 500 550" version="1.1" xmlns="http://www.w3.org/2000/svg" xmlns:xlink="http://www.w3.org/1999/xlink" xml:space="preserve" xmlns:serif="http://www.serif.com/" style="fill-rule:evenodd;clip-rule:evenodd;stroke-linejoin:round;stroke-miterlimit:2;">
    <g transform="matrix(1,0,0,1,-670,-205.182)">
        <g transform="matrix(1,0,0,1,450,-65.1817)">
            <path d="M710,800C715.523,800 720,804.477 720,810C720,815.523 715.523,820 710,820L229.975,820C227.33,820 224.792,818.949 222.922,817.078C221.051,815.208 220,812.67 220,810.025L220,809.967C220,804.462 224.462,800 229.967,800L710,800ZM700.545,319.625C703.187,319.856 705.629,321.128 707.334,323.159C709.038,325.191 709.866,327.817 709.635,330.459L706.115,370.69C705.875,373.441 703.449,375.476 700.699,375.235L611.041,367.391C608.29,367.15 606.255,364.725 606.496,361.974L610.016,321.743C610.247,319.101 611.518,316.659 613.55,314.954C615.581,313.249 618.207,312.422 620.849,312.653L700.545,319.625ZM699.089,393.626C700.411,393.742 701.632,394.377 702.484,395.393C703.336,396.409 703.75,397.722 703.635,399.043L701.288,425.864C701.173,427.185 700.537,428.406 699.521,429.258C698.505,430.11 697.192,430.524 695.871,430.409L606.214,422.565C604.893,422.449 603.672,421.813 602.819,420.798C601.967,419.782 601.553,418.469 601.669,417.148L604.015,390.327C604.131,389.006 604.766,387.785 605.782,386.933C606.798,386.08 608.111,385.667 609.432,385.782L699.089,393.626ZM689.281,448.364C694.783,448.846 698.853,453.696 698.372,459.198L669.543,788.708C669.062,794.21 664.212,798.28 658.71,797.799L579.014,790.826C573.512,790.345 569.443,785.495 569.924,779.993L598.752,450.482C599.234,444.98 604.084,440.91 609.586,441.392L689.281,448.364ZM600.925,310.91L559.09,789.083L549.128,788.212C546.486,787.98 544.044,786.709 542.34,784.677C540.635,782.646 539.807,780.02 540.038,777.378L580.13,319.128C580.361,316.486 581.632,314.044 583.664,312.34C585.695,310.635 588.321,309.807 590.963,310.038L600.925,310.91ZM560.608,308.591C565.798,310.48 568.474,316.219 566.585,321.408L551.194,363.695C550.25,366.29 547.38,367.627 544.786,366.683L460.213,335.901C457.618,334.957 456.28,332.088 457.225,329.493L472.616,287.206C474.505,282.017 480.243,279.341 485.433,281.23L560.608,308.591ZM537.945,385.477C539.191,385.93 540.206,386.86 540.767,388.062C541.327,389.264 541.387,390.639 540.934,391.885L530.673,420.076C530.219,421.322 529.289,422.337 528.088,422.898C526.886,423.458 525.51,423.518 524.264,423.065L439.692,392.283C438.446,391.829 437.431,390.899 436.871,389.697C436.31,388.496 436.25,387.12 436.704,385.874L446.964,357.683C447.418,356.437 448.348,355.422 449.55,354.862C450.751,354.302 452.127,354.242 453.373,354.695L537.945,385.477ZM512.726,440.148C517.915,442.037 520.591,447.776 518.702,452.965L395.575,791.255C393.686,796.445 387.948,799.12 382.758,797.232L307.582,769.87C302.393,767.981 299.717,762.243 301.606,757.053L424.733,418.763C426.622,413.574 432.36,410.898 437.55,412.787L512.726,440.148ZM466.639,274.389L288.789,763.03L279.392,759.609C274.202,757.72 271.526,751.982 273.415,746.792L444.425,276.946C446.314,271.756 452.052,269.08 457.242,270.969L466.639,274.389Z" style="fill:rgb(196,160,96);"/>
        </g>
    </g>
</svg>
